# xmcd
# Copyright (C) 1995-1998 Ti Kan
#
# Track frame offsets:
#       150
#       19218
#       31636
#       49048
#       68192
#       85642
#       97192
#       112322
#       133098
#       151342
#       167949
#       184522
#       199391
#       217034
#       240113
#       254041
#       268031
#       286829
#       306536
#
# Disc length: 4258 seconds
#
# Revision: 0
# Processed by: cddbd v1.5.2PL0 Copyright (c) Steve Scherf et al.
# Submitted via: CD-Import v1.0
#
DISCID=1910a013
DTITLE=Urban Suisse - Urban
DYEAR=08
DGENRE=
TTITLE0=Mais Où ?
TTITLE1=La Rime Assassine
TTITLE2=Bidon
TTITLE3=Nights Riders
TTITLE4=Anatorythme
TTITLE5=Limelight
TTITLE6=Roccobelly Dance
TTITLE7=Libre
TTITLE8=On Fait Bouger Les Coudes
TTITLE9=Siemis
TTITLE10=Le Sablier
TTITLE11=Don't Worry
TTITLE12=Alarma
TTITLE13=N'oublie Pas
TTITLE14=Qui T'es ?
TTITLE15=C'est Hip Hop
TTITLE16=Platine
TTITLE17=Pas De Fuck
TTITLE18=Loin
EXTD=
EXTT0=
EXTT1=
EXTT2=
EXTT3=
EXTT4=
EXTT5=
EXTT6=
EXTT7=
EXTT8=
EXTT9=
EXTT10=
EXTT11=
EXTT12=
EXTT13=
EXTT14=
EXTT15=
EXTT16=
EXTT17=
EXTT18=
PLAYORDER=
